# xmcd
#
# Track frame offsets: 
#        150
#        13637
#        25393
#        37172
#        50147
#        62701
#        77943
#        91232
#        104223
#        118717
#        132219
#        143664
#        156031
#        169654
#        183056
#        195186
#        207766
#        221053
#        232265
#        247362
#        258776
#        272218
#        283173
#        297463
#        308995
#
# Disc length: 4262 seconds
#
# Revision: 4
# Processed by: cddbd v1.5.2PL0 Copyright (c) Steve Scherf et al.
# Submitted via: ExactAudioCopyFreeDBPlugin 1.0
#
DISCID=8310a419
DTITLE=Various Artist - The Dawn of Doo-Wop [Proper Records]
DYEAR=2002
DGENRE=Rhythm and Blues
TTITLE0=The Ink Spots - When the Swallows Come Back to Capistrano
TTITLE1=The Lewis Bronzeville Five - Natchez Mississippi Blues
TTITLE2=The Mills Brothers - Paper Doll
TTITLE3=The Four Vagabonds - Coming in on a Wing and a Prayer
TTITLE4=The Red Caps - Just for You
TTITLE5=The Mills Brothers - You Always Hurt the One You Love
TTITLE6=The Toppers - I'm Living for You
TTITLE7=The Toppers - In a Palace of Stone
TTITLE8=The Ink Spots - To Each His Own
TTITLE9=The Basin Street Boys - I Sold My Heart to the Junkman
TTITLE10=The Deep River Boys - That Chick's Too Young to Fry
TTITLE11=The Ravens - Bye Bye Blues
TTITLE12=The Four Vagabonds - P.S. I Love You
TTITLE13=The Ravens - Ol' Man River
TTITLE14=The Basin Street Boys - Near to You
TTITLE15=The Ravens - Together
TTITLE16=Bill Johnson and his Musical Notes - Shorty's Got to Go
TTITLE17=The Mills Brothers - Across the Alley from the Alamo
TTITLE18=The Ink Spots - You're Breaking My Heart
TTITLE19=The Syncopaters - River Stay Away from My Door
TTITLE20=The Syncopaters - These Are the Things I Want to Share with Y
TTITLE20=ou
TTITLE21=The Four Rockets - Loch Lomond
TTITLE22=The Ravens - White Christmas
TTITLE23=The Trumpeteers - Milky White Way
TTITLE24=Steve Gibson and the Red Caps - Boogie Woogie on a Saturday Nig
TTITLE24=ht
EXTD=ID3G: 14
EXTT0=
EXTT1=
EXTT2=
EXTT3=
EXTT4=
EXTT5=
EXTT6=
EXTT7=
EXTT8=
EXTT9=
EXTT10=
EXTT11=
EXTT12=
EXTT13=
EXTT14=
EXTT15=
EXTT16=
EXTT17=
EXTT18=
EXTT19=
EXTT20=
EXTT21=
EXTT22=
EXTT23=
EXTT24=
PLAYORDER=
